<svg xmlns="http://www.w3.org/2000/svg" viewBox="0 0 512 512" fill="none">
  <rect width="512" height="512" rx="100" fill="#1e1e2e"/>
  <g stroke="#a78bfa" stroke-width="24" stroke-linecap="round" fill="none">
    <!-- left node -->
    <rect x="40" y="156" width="120" height="80" rx="16" fill="#1e1e2e"/>
    <circle cx="160" cy="256" r="24" fill="#a78bfa" stroke="none"/>
    <!-- arrow 1 -->
    <path d="M184 196 L280 160"/>
    <path d="M184 316 L280 352"/>
    <!-- center node -->
    <rect x="280" y="136" width="160" height="100" rx="16" fill="#1e1e2e"/>
    <rect x="296" y="152" width="48" height="12" rx="6" fill="#a78bfa" stroke="none"/>
    <rect x="296" y="176" width="80" height="12" rx="6" fill="#a78bfa" stroke="none"/>
    <rect x="296" y="200" width="64" height="12" rx="6" fill="#a78bfa" stroke="none"/>
    <!-- arrow 2 -->
    <path d="M440 196 L520 216"/>
    <path d="M440 280 L520 316"/>
    <!-- right node -->
    <rect x="130" y="316" width="100" height="70" rx="16" fill="#1e1e2e"/>
    <rect x="146" y="332" width="36" height="12" rx="6" fill="#a78bfa" stroke="none"/>
    <rect x="146" y="352" width="52" height="12" rx="6" fill="#a78bfa" stroke="none"/>
  </g>
</svg>
